<mxfile host="app.diagrams.net" modified="2024-01-10T16:06:05.213Z" agent="Mozilla/5.0 (Windows NT 10.0; Win64; x64) AppleWebKit/537.36 (KHTML, like Gecko) Chrome/120.0.0.0 Safari/537.36" etag="4kWyVgsGVnptGnQ5NtDn" version="22.1.18" type="device">
  <diagram name="Page-1" id="Ne1jH0ApXfLOEGDyirsr">
    <mxGraphModel dx="1833" dy="1076" grid="1" gridSize="10" guides="1" tooltips="1" connect="1" arrows="1" fold="1" page="1" pageScale="1" pageWidth="827" pageHeight="1169" math="0" shadow="0">
      <root>
        <mxCell id="0" />
        <mxCell id="1" parent="0" />
        <mxCell id="vhXZTFGHfUpD-fuafXl4-6" value="switch-mbastard" style="swimlane;whiteSpace=wrap;html=1;" parent="1" vertex="1" collapsed="1">
          <mxGeometry x="760" y="80" width="160" height="30" as="geometry">
            <mxRectangle x="760" y="80" width="160" height="200" as="alternateBounds" />
          </mxGeometry>
        </mxCell>
        <mxCell id="vhXZTFGHfUpD-fuafXl4-9" value="eth0" style="rounded=0;whiteSpace=wrap;html=1;" parent="vhXZTFGHfUpD-fuafXl4-6" vertex="1">
          <mxGeometry x="20" y="40" width="120" height="60" as="geometry" />
        </mxCell>
        <mxCell id="vhXZTFGHfUpD-fuafXl4-11" value="eth1" style="rounded=0;whiteSpace=wrap;html=1;" parent="vhXZTFGHfUpD-fuafXl4-6" vertex="1">
          <mxGeometry x="20" y="120" width="120" height="60" as="geometry" />
        </mxCell>
        <mxCell id="vhXZTFGHfUpD-fuafXl4-21" value="host-sajansse" style="swimlane;whiteSpace=wrap;html=1;" parent="1" vertex="1" collapsed="1">
          <mxGeometry x="1320" y="80" width="290" height="30" as="geometry">
            <mxRectangle x="1320" y="80" width="290" height="170" as="alternateBounds" />
          </mxGeometry>
        </mxCell>
        <mxCell id="vhXZTFGHfUpD-fuafXl4-22" value="eth0" style="rounded=0;whiteSpace=wrap;html=1;" parent="vhXZTFGHfUpD-fuafXl4-21" vertex="1">
          <mxGeometry x="20" y="40" width="250" height="60" as="geometry" />
        </mxCell>
        <mxCell id="vhXZTFGHfUpD-fuafXl4-34" value="conf" style="swimlane;whiteSpace=wrap;html=1;" parent="vhXZTFGHfUpD-fuafXl4-21" vertex="1" collapsed="1">
          <mxGeometry x="20" y="120" width="250" height="30" as="geometry">
            <mxRectangle x="20" y="120" width="250" height="80" as="alternateBounds" />
          </mxGeometry>
        </mxCell>
        <mxCell id="vhXZTFGHfUpD-fuafXl4-62" value="&lt;div style=&quot;font-family: Consolas, &amp;quot;Courier New&amp;quot;, monospace; font-size: 14px; line-height: 19px;&quot;&gt;&lt;span style=&quot;background-color: rgb(255, 255, 255);&quot;&gt;ip addr add 30.1.1.2/24 dev eth0&lt;/span&gt;&lt;/div&gt;" style="rounded=0;whiteSpace=wrap;html=1;strokeColor=none;" parent="vhXZTFGHfUpD-fuafXl4-34" vertex="1">
          <mxGeometry y="20" width="250" height="60" as="geometry" />
        </mxCell>
        <mxCell id="vhXZTFGHfUpD-fuafXl4-39" value="router-mbastard" style="swimlane;whiteSpace=wrap;html=1;" parent="1" vertex="1" collapsed="1">
          <mxGeometry x="400" y="320" width="400" height="30" as="geometry">
            <mxRectangle x="400" y="320" width="400" height="350" as="alternateBounds" />
          </mxGeometry>
        </mxCell>
        <mxCell id="vhXZTFGHfUpD-fuafXl4-40" value="eth0" style="rounded=0;whiteSpace=wrap;html=1;" parent="vhXZTFGHfUpD-fuafXl4-39" vertex="1">
          <mxGeometry x="20" y="40" width="360" height="60" as="geometry" />
        </mxCell>
        <mxCell id="vhXZTFGHfUpD-fuafXl4-41" value="eth1" style="rounded=0;whiteSpace=wrap;html=1;" parent="vhXZTFGHfUpD-fuafXl4-39" vertex="1">
          <mxGeometry x="20" y="120" width="360" height="60" as="geometry" />
        </mxCell>
        <mxCell id="vhXZTFGHfUpD-fuafXl4-42" value="conf" style="swimlane;whiteSpace=wrap;html=1;" parent="vhXZTFGHfUpD-fuafXl4-39" vertex="1">
          <mxGeometry x="20" y="200" width="360" height="130" as="geometry">
            <mxRectangle x="20" y="200" width="360" height="30" as="alternateBounds" />
          </mxGeometry>
        </mxCell>
        <mxCell id="vhXZTFGHfUpD-fuafXl4-46" value="multicast" style="swimlane;whiteSpace=wrap;html=1;rounded=0;" parent="vhXZTFGHfUpD-fuafXl4-42" vertex="1" collapsed="1">
          <mxGeometry x="10" y="80" width="340" height="30" as="geometry">
            <mxRectangle x="10" y="80" width="340" height="300" as="alternateBounds" />
          </mxGeometry>
        </mxCell>
        <mxCell id="vhXZTFGHfUpD-fuafXl4-47" value="&lt;div style=&quot;font-family: Consolas, &amp;quot;Courier New&amp;quot;, monospace; font-size: 14px; line-height: 19px;&quot;&gt;&lt;div style=&quot;&quot;&gt;&lt;span style=&quot;background-color: rgb(255, 255, 255);&quot;&gt;ip addr add 10.1.1.1/24 dev eth0&lt;/span&gt;&lt;/div&gt;&lt;span style=&quot;background-color: rgb(255, 255, 255);&quot;&gt;&lt;br&gt;&lt;/span&gt;&lt;div style=&quot;&quot;&gt;&lt;span style=&quot;background-color: rgb(255, 255, 255);&quot;&gt;ip link add name vxlan10 type vxlan id 10 \&lt;br&gt;&lt;/span&gt;&lt;/div&gt;&lt;div style=&quot;&quot;&gt;&lt;span style=&quot;background-color: rgb(255, 255, 255);&quot;&gt;&amp;nbsp; &amp;nbsp; dev eth0 \&lt;/span&gt;&lt;/div&gt;&lt;div style=&quot;&quot;&gt;&lt;span style=&quot;background-color: rgb(255, 255, 255);&quot;&gt;&amp;nbsp; &amp;nbsp; group 239.1.1.1 \&lt;/span&gt;&lt;/div&gt;&lt;div style=&quot;&quot;&gt;&lt;span style=&quot;background-color: rgb(255, 255, 255);&quot;&gt;&amp;nbsp; &amp;nbsp; dstport 4789&lt;/span&gt;&lt;/div&gt;&lt;div style=&quot;&quot;&gt;&lt;span style=&quot;background-color: rgb(255, 255, 255);&quot;&gt;ip addr add 20.1.1.1/24 dev vxlan10&lt;/span&gt;&lt;/div&gt;&lt;div style=&quot;&quot;&gt;&lt;span style=&quot;background-color: rgb(255, 255, 255);&quot;&gt;ip link set dev vxlan10 up&lt;/span&gt;&lt;/div&gt;&lt;span style=&quot;background-color: rgb(255, 255, 255);&quot;&gt;&lt;br&gt;&lt;/span&gt;&lt;div style=&quot;&quot;&gt;&lt;span style=&quot;background-color: rgb(255, 255, 255);&quot;&gt;ip link add br0 type bridge&lt;br&gt;&lt;/span&gt;&lt;/div&gt;&lt;div style=&quot;&quot;&gt;&lt;span style=&quot;background-color: rgb(255, 255, 255);&quot;&gt;ip link set dev br0 up&lt;/span&gt;&lt;/div&gt;&lt;div style=&quot;&quot;&gt;&lt;span style=&quot;background-color: rgb(255, 255, 255);&quot;&gt;brctl addif br0 eth1&lt;/span&gt;&lt;/div&gt;&lt;div style=&quot;&quot;&gt;&lt;span style=&quot;background-color: rgb(255, 255, 255);&quot;&gt;brctl addif br0 vxlan10&lt;/span&gt;&lt;/div&gt;&lt;br&gt;&lt;/div&gt;" style="rounded=0;whiteSpace=wrap;html=1;align=left;fontColor=default;labelBackgroundColor=default;strokeColor=none;" parent="vhXZTFGHfUpD-fuafXl4-46" vertex="1">
          <mxGeometry y="19" width="340" height="280" as="geometry" />
        </mxCell>
        <mxCell id="vhXZTFGHfUpD-fuafXl4-43" value="static" style="swimlane;whiteSpace=wrap;html=1;rounded=0;" parent="vhXZTFGHfUpD-fuafXl4-42" vertex="1" collapsed="1">
          <mxGeometry x="10" y="40" width="340" height="30" as="geometry">
            <mxRectangle x="10" y="40" width="340" height="300" as="alternateBounds" />
          </mxGeometry>
        </mxCell>
        <mxCell id="vhXZTFGHfUpD-fuafXl4-44" value="&lt;span style=&quot;font-family: Consolas, &amp;quot;Courier New&amp;quot;, monospace; font-size: 14px;&quot;&gt;ip&lt;/span&gt;&lt;span style=&quot;font-family: Consolas, &amp;quot;Courier New&amp;quot;, monospace; font-size: 14px;&quot;&gt; &lt;/span&gt;&lt;span style=&quot;font-family: Consolas, &amp;quot;Courier New&amp;quot;, monospace; font-size: 14px;&quot;&gt;addr&lt;/span&gt;&lt;span style=&quot;font-family: Consolas, &amp;quot;Courier New&amp;quot;, monospace; font-size: 14px;&quot;&gt; &lt;/span&gt;&lt;span style=&quot;font-family: Consolas, &amp;quot;Courier New&amp;quot;, monospace; font-size: 14px;&quot;&gt;add&lt;/span&gt;&lt;span style=&quot;font-family: Consolas, &amp;quot;Courier New&amp;quot;, monospace; font-size: 14px;&quot;&gt;&amp;nbsp;10.1.1.1&lt;/span&gt;&lt;span style=&quot;font-family: Consolas, &amp;quot;Courier New&amp;quot;, monospace; font-size: 14px;&quot;&gt;/24&lt;/span&gt;&lt;span style=&quot;font-family: Consolas, &amp;quot;Courier New&amp;quot;, monospace; font-size: 14px;&quot;&gt; &lt;/span&gt;&lt;span style=&quot;font-family: Consolas, &amp;quot;Courier New&amp;quot;, monospace; font-size: 14px;&quot;&gt;dev&lt;/span&gt;&lt;span style=&quot;font-family: Consolas, &amp;quot;Courier New&amp;quot;, monospace; font-size: 14px;&quot;&gt; &lt;/span&gt;&lt;span style=&quot;font-family: Consolas, &amp;quot;Courier New&amp;quot;, monospace; font-size: 14px;&quot;&gt;eth0&lt;/span&gt;&lt;br&gt;&lt;div style=&quot;font-family: Consolas, &amp;quot;Courier New&amp;quot;, monospace; font-weight: normal; font-size: 14px; line-height: 19px;&quot;&gt;&lt;div&gt;&lt;br&gt;&lt;/div&gt;&lt;div&gt;&lt;span style=&quot;&quot;&gt;ip&lt;/span&gt;&lt;span style=&quot;&quot;&gt; &lt;/span&gt;&lt;span style=&quot;&quot;&gt;link&lt;/span&gt;&lt;span style=&quot;&quot;&gt; &lt;/span&gt;&lt;span style=&quot;&quot;&gt;add&lt;/span&gt;&lt;span style=&quot;&quot;&gt; &lt;/span&gt;&lt;span style=&quot;&quot;&gt;name&lt;/span&gt;&lt;span style=&quot;&quot;&gt; &lt;/span&gt;&lt;span style=&quot;&quot;&gt;vxlan10&lt;/span&gt;&lt;span style=&quot;&quot;&gt; &lt;/span&gt;&lt;span style=&quot;&quot;&gt;type&lt;/span&gt;&lt;span style=&quot;&quot;&gt; &lt;/span&gt;&lt;span style=&quot;&quot;&gt;vxlan&lt;/span&gt;&lt;span style=&quot;&quot;&gt; &lt;/span&gt;&lt;span style=&quot;&quot;&gt;id&lt;/span&gt;&lt;span style=&quot;&quot;&gt; &lt;/span&gt;&lt;span style=&quot;&quot;&gt;10&lt;/span&gt;&lt;span style=&quot;&quot;&gt;&amp;nbsp;\&lt;/span&gt;&lt;/div&gt;&lt;div&gt;&lt;span style=&quot;white-space: pre;&quot;&gt;&#x9;&lt;/span&gt;dev eth0&amp;nbsp;\&lt;/div&gt;&lt;div&gt;&lt;span style=&quot;white-space: pre;&quot;&gt;&#x9;&lt;/span&gt;remote 10.1.1.2 \&lt;/div&gt;&lt;div&gt;&lt;span style=&quot;white-space: pre;&quot;&gt;&#x9;&lt;/span&gt;local 10.1.1.1 \&lt;/div&gt;&lt;div&gt;&lt;span style=&quot;white-space: pre;&quot;&gt;&#x9;&lt;/span&gt;dstport 4789&lt;/div&gt;&lt;div&gt;&lt;span style=&quot;&quot;&gt;ip&lt;/span&gt;&lt;span style=&quot;&quot;&gt; &lt;/span&gt;&lt;span style=&quot;&quot;&gt;addr&lt;/span&gt;&lt;span style=&quot;&quot;&gt; &lt;/span&gt;&lt;span style=&quot;&quot;&gt;add&lt;/span&gt;&lt;span style=&quot;&quot;&gt;&amp;nbsp;20.1.1.1&lt;/span&gt;&lt;span style=&quot;&quot;&gt;/24&lt;/span&gt;&lt;span style=&quot;&quot;&gt; &lt;/span&gt;&lt;span style=&quot;&quot;&gt;dev&lt;/span&gt;&lt;span style=&quot;&quot;&gt; &lt;/span&gt;&lt;span style=&quot;&quot;&gt;vxlan10&lt;/span&gt;&lt;/div&gt;&lt;div&gt;&lt;span style=&quot;&quot;&gt;ip&lt;/span&gt;&lt;span style=&quot;&quot;&gt; &lt;/span&gt;&lt;span style=&quot;&quot;&gt;link&lt;/span&gt;&lt;span style=&quot;&quot;&gt; &lt;/span&gt;&lt;span style=&quot;&quot;&gt;set&lt;/span&gt;&lt;span style=&quot;&quot;&gt; &lt;/span&gt;&lt;span style=&quot;&quot;&gt;dev&lt;/span&gt;&lt;span style=&quot;&quot;&gt; &lt;/span&gt;&lt;span style=&quot;&quot;&gt;vxlan10&lt;/span&gt;&lt;span style=&quot;&quot;&gt; &lt;/span&gt;&lt;span style=&quot;&quot;&gt;up&lt;/span&gt;&lt;/div&gt;&lt;div&gt;&lt;br&gt;&lt;/div&gt;&lt;div&gt;&lt;span style=&quot;&quot;&gt;ip&lt;/span&gt;&lt;span style=&quot;&quot;&gt; &lt;/span&gt;&lt;span style=&quot;&quot;&gt;link&lt;/span&gt;&lt;span style=&quot;&quot;&gt; &lt;/span&gt;&lt;span style=&quot;&quot;&gt;add&lt;/span&gt;&lt;span style=&quot;&quot;&gt; &lt;/span&gt;&lt;span style=&quot;&quot;&gt;br0&lt;/span&gt;&lt;span style=&quot;&quot;&gt; &lt;/span&gt;&lt;span style=&quot;&quot;&gt;type&lt;/span&gt;&lt;span style=&quot;&quot;&gt; &lt;/span&gt;&lt;span style=&quot;&quot;&gt;bridge&lt;/span&gt;&lt;/div&gt;&lt;div&gt;&lt;span style=&quot;&quot;&gt;ip&lt;/span&gt;&lt;span style=&quot;&quot;&gt; &lt;/span&gt;&lt;span style=&quot;&quot;&gt;link&lt;/span&gt;&lt;span style=&quot;&quot;&gt; &lt;/span&gt;&lt;span style=&quot;&quot;&gt;set&lt;/span&gt;&lt;span style=&quot;&quot;&gt; &lt;/span&gt;&lt;span style=&quot;&quot;&gt;dev&lt;/span&gt;&lt;span style=&quot;&quot;&gt; &lt;/span&gt;&lt;span style=&quot;&quot;&gt;br0&lt;/span&gt;&lt;span style=&quot;&quot;&gt; &lt;/span&gt;&lt;span style=&quot;&quot;&gt;up&lt;/span&gt;&lt;/div&gt;&lt;div&gt;&lt;span style=&quot;&quot;&gt;brctl&lt;/span&gt;&lt;span style=&quot;&quot;&gt; &lt;/span&gt;&lt;span style=&quot;&quot;&gt;addif&lt;/span&gt;&lt;span style=&quot;&quot;&gt; &lt;/span&gt;&lt;span style=&quot;&quot;&gt;br0&lt;/span&gt;&lt;span style=&quot;&quot;&gt; &lt;/span&gt;&lt;span style=&quot;&quot;&gt;eth1&lt;/span&gt;&lt;/div&gt;&lt;div&gt;&lt;span style=&quot;&quot;&gt;brctl&lt;/span&gt;&lt;span style=&quot;&quot;&gt; &lt;/span&gt;&lt;span style=&quot;&quot;&gt;addif&lt;/span&gt;&lt;span style=&quot;&quot;&gt; &lt;/span&gt;&lt;span style=&quot;&quot;&gt;br0&lt;/span&gt;&lt;span style=&quot;&quot;&gt; &lt;/span&gt;&lt;span style=&quot;&quot;&gt;vxlan10&lt;/span&gt;&lt;/div&gt;&lt;/div&gt;" style="rounded=0;whiteSpace=wrap;html=1;align=left;fontColor=default;labelBackgroundColor=default;strokeColor=none;" parent="vhXZTFGHfUpD-fuafXl4-43" vertex="1">
          <mxGeometry y="19" width="340" height="280" as="geometry" />
        </mxCell>
        <mxCell id="vhXZTFGHfUpD-fuafXl4-49" value="router-mbastard" style="swimlane;whiteSpace=wrap;html=1;" parent="1" vertex="1" collapsed="1">
          <mxGeometry x="880" y="320" width="400" height="30" as="geometry">
            <mxRectangle x="880" y="320" width="400" height="350" as="alternateBounds" />
          </mxGeometry>
        </mxCell>
        <mxCell id="vhXZTFGHfUpD-fuafXl4-50" value="eth0" style="rounded=0;whiteSpace=wrap;html=1;" parent="vhXZTFGHfUpD-fuafXl4-49" vertex="1">
          <mxGeometry x="20" y="40" width="360" height="60" as="geometry" />
        </mxCell>
        <mxCell id="vhXZTFGHfUpD-fuafXl4-51" value="eth1" style="rounded=0;whiteSpace=wrap;html=1;" parent="vhXZTFGHfUpD-fuafXl4-49" vertex="1">
          <mxGeometry x="20" y="120" width="360" height="60" as="geometry" />
        </mxCell>
        <mxCell id="vhXZTFGHfUpD-fuafXl4-52" value="conf" style="swimlane;whiteSpace=wrap;html=1;" parent="vhXZTFGHfUpD-fuafXl4-49" vertex="1">
          <mxGeometry x="20" y="200" width="360" height="130" as="geometry">
            <mxRectangle x="20" y="200" width="360" height="30" as="alternateBounds" />
          </mxGeometry>
        </mxCell>
        <mxCell id="vhXZTFGHfUpD-fuafXl4-53" value="multicast" style="swimlane;whiteSpace=wrap;html=1;rounded=0;" parent="vhXZTFGHfUpD-fuafXl4-52" vertex="1" collapsed="1">
          <mxGeometry x="10" y="80" width="340" height="30" as="geometry">
            <mxRectangle x="10" y="80" width="340" height="300" as="alternateBounds" />
          </mxGeometry>
        </mxCell>
        <mxCell id="vhXZTFGHfUpD-fuafXl4-54" value="&lt;div style=&quot;font-family: Consolas, &amp;quot;Courier New&amp;quot;, monospace; font-size: 14px; line-height: 19px;&quot;&gt;&lt;div style=&quot;&quot;&gt;&lt;span style=&quot;background-color: rgb(255, 255, 255);&quot;&gt;ip addr add 10.1.1.2/24 dev eth0&lt;/span&gt;&lt;/div&gt;&lt;span style=&quot;background-color: rgb(255, 255, 255);&quot;&gt;&lt;br&gt;&lt;/span&gt;&lt;div style=&quot;&quot;&gt;&lt;span style=&quot;background-color: rgb(255, 255, 255);&quot;&gt;ip link add name vxlan10 type vxlan id 10 \&lt;br&gt;&lt;/span&gt;&lt;/div&gt;&lt;div style=&quot;&quot;&gt;&lt;span style=&quot;background-color: rgb(255, 255, 255);&quot;&gt;&amp;nbsp; &amp;nbsp; dev eth0 \&lt;/span&gt;&lt;/div&gt;&lt;div style=&quot;&quot;&gt;&lt;span style=&quot;background-color: rgb(255, 255, 255);&quot;&gt;&amp;nbsp; &amp;nbsp; group 239.1.1.1 \&lt;/span&gt;&lt;/div&gt;&lt;div style=&quot;&quot;&gt;&lt;span style=&quot;background-color: rgb(255, 255, 255);&quot;&gt;&amp;nbsp; &amp;nbsp; dstport 4789&lt;/span&gt;&lt;/div&gt;&lt;div style=&quot;&quot;&gt;&lt;span style=&quot;background-color: rgb(255, 255, 255);&quot;&gt;ip addr add 20.1.1.2/24 dev vxlan10&lt;/span&gt;&lt;/div&gt;&lt;div style=&quot;&quot;&gt;&lt;span style=&quot;background-color: rgb(255, 255, 255);&quot;&gt;ip link set dev vxlan10 up&lt;/span&gt;&lt;/div&gt;&lt;span style=&quot;background-color: rgb(255, 255, 255);&quot;&gt;&lt;br&gt;&lt;/span&gt;&lt;div style=&quot;&quot;&gt;&lt;span style=&quot;background-color: rgb(255, 255, 255);&quot;&gt;ip link add br0 type bridge&lt;br&gt;&lt;/span&gt;&lt;/div&gt;&lt;div style=&quot;&quot;&gt;&lt;span style=&quot;background-color: rgb(255, 255, 255);&quot;&gt;ip link set dev br0 up&lt;/span&gt;&lt;/div&gt;&lt;div style=&quot;&quot;&gt;&lt;span style=&quot;background-color: rgb(255, 255, 255);&quot;&gt;brctl addif br0 eth1&lt;/span&gt;&lt;/div&gt;&lt;div style=&quot;&quot;&gt;&lt;span style=&quot;background-color: rgb(255, 255, 255);&quot;&gt;brctl addif br0 vxlan10&lt;/span&gt;&lt;/div&gt;&lt;br&gt;&lt;/div&gt;" style="rounded=0;whiteSpace=wrap;html=1;align=left;fontColor=default;labelBackgroundColor=default;strokeColor=none;" parent="vhXZTFGHfUpD-fuafXl4-53" vertex="1">
          <mxGeometry y="19" width="340" height="280" as="geometry" />
        </mxCell>
        <mxCell id="vhXZTFGHfUpD-fuafXl4-55" value="static" style="swimlane;whiteSpace=wrap;html=1;rounded=0;" parent="vhXZTFGHfUpD-fuafXl4-52" vertex="1" collapsed="1">
          <mxGeometry x="10" y="40" width="340" height="30" as="geometry">
            <mxRectangle x="10" y="40" width="340" height="300" as="alternateBounds" />
          </mxGeometry>
        </mxCell>
        <mxCell id="vhXZTFGHfUpD-fuafXl4-56" value="&lt;span style=&quot;font-family: Consolas, &amp;quot;Courier New&amp;quot;, monospace; font-size: 14px;&quot;&gt;ip&lt;/span&gt;&lt;span style=&quot;font-family: Consolas, &amp;quot;Courier New&amp;quot;, monospace; font-size: 14px;&quot;&gt; &lt;/span&gt;&lt;span style=&quot;font-family: Consolas, &amp;quot;Courier New&amp;quot;, monospace; font-size: 14px;&quot;&gt;addr&lt;/span&gt;&lt;span style=&quot;font-family: Consolas, &amp;quot;Courier New&amp;quot;, monospace; font-size: 14px;&quot;&gt; &lt;/span&gt;&lt;span style=&quot;font-family: Consolas, &amp;quot;Courier New&amp;quot;, monospace; font-size: 14px;&quot;&gt;add&lt;/span&gt;&lt;span style=&quot;font-family: Consolas, &amp;quot;Courier New&amp;quot;, monospace; font-size: 14px;&quot;&gt;&amp;nbsp;10.1.1.2&lt;/span&gt;&lt;span style=&quot;font-family: Consolas, &amp;quot;Courier New&amp;quot;, monospace; font-size: 14px;&quot;&gt;/24&lt;/span&gt;&lt;span style=&quot;font-family: Consolas, &amp;quot;Courier New&amp;quot;, monospace; font-size: 14px;&quot;&gt; &lt;/span&gt;&lt;span style=&quot;font-family: Consolas, &amp;quot;Courier New&amp;quot;, monospace; font-size: 14px;&quot;&gt;dev&lt;/span&gt;&lt;span style=&quot;font-family: Consolas, &amp;quot;Courier New&amp;quot;, monospace; font-size: 14px;&quot;&gt; &lt;/span&gt;&lt;span style=&quot;font-family: Consolas, &amp;quot;Courier New&amp;quot;, monospace; font-size: 14px;&quot;&gt;eth0&lt;/span&gt;&lt;br&gt;&lt;div style=&quot;font-family: Consolas, &amp;quot;Courier New&amp;quot;, monospace; font-weight: normal; font-size: 14px; line-height: 19px;&quot;&gt;&lt;div&gt;&lt;br&gt;&lt;/div&gt;&lt;div&gt;&lt;span style=&quot;&quot;&gt;ip&lt;/span&gt;&lt;span style=&quot;&quot;&gt; &lt;/span&gt;&lt;span style=&quot;&quot;&gt;link&lt;/span&gt;&lt;span style=&quot;&quot;&gt; &lt;/span&gt;&lt;span style=&quot;&quot;&gt;add&lt;/span&gt;&lt;span style=&quot;&quot;&gt; &lt;/span&gt;&lt;span style=&quot;&quot;&gt;name&lt;/span&gt;&lt;span style=&quot;&quot;&gt; &lt;/span&gt;&lt;span style=&quot;&quot;&gt;vxlan10&lt;/span&gt;&lt;span style=&quot;&quot;&gt; &lt;/span&gt;&lt;span style=&quot;&quot;&gt;type&lt;/span&gt;&lt;span style=&quot;&quot;&gt; &lt;/span&gt;&lt;span style=&quot;&quot;&gt;vxlan&lt;/span&gt;&lt;span style=&quot;&quot;&gt; &lt;/span&gt;&lt;span style=&quot;&quot;&gt;id&lt;/span&gt;&lt;span style=&quot;&quot;&gt; &lt;/span&gt;&lt;span style=&quot;&quot;&gt;10&lt;/span&gt;&lt;span style=&quot;&quot;&gt;&amp;nbsp;\&lt;/span&gt;&lt;/div&gt;&lt;div&gt;&lt;span style=&quot;white-space: pre;&quot;&gt;&#x9;&lt;/span&gt;dev eth0&amp;nbsp;\&lt;/div&gt;&lt;div&gt;&lt;span style=&quot;white-space: pre;&quot;&gt;&#x9;&lt;/span&gt;remote 10.1.1.1 \&lt;/div&gt;&lt;div&gt;&lt;span style=&quot;white-space: pre;&quot;&gt;&#x9;&lt;/span&gt;local 10.1.1.2 \&lt;/div&gt;&lt;div&gt;&lt;span style=&quot;white-space: pre;&quot;&gt;&#x9;&lt;/span&gt;dstport 4789&lt;/div&gt;&lt;div&gt;&lt;span style=&quot;&quot;&gt;ip&lt;/span&gt;&lt;span style=&quot;&quot;&gt; &lt;/span&gt;&lt;span style=&quot;&quot;&gt;addr&lt;/span&gt;&lt;span style=&quot;&quot;&gt; &lt;/span&gt;&lt;span style=&quot;&quot;&gt;add&lt;/span&gt;&lt;span style=&quot;&quot;&gt;&amp;nbsp;20.1.1.2&lt;/span&gt;&lt;span style=&quot;&quot;&gt;/24&lt;/span&gt;&lt;span style=&quot;&quot;&gt; &lt;/span&gt;&lt;span style=&quot;&quot;&gt;dev&lt;/span&gt;&lt;span style=&quot;&quot;&gt; &lt;/span&gt;&lt;span style=&quot;&quot;&gt;vxlan10&lt;/span&gt;&lt;/div&gt;&lt;div&gt;&lt;span style=&quot;&quot;&gt;ip&lt;/span&gt;&lt;span style=&quot;&quot;&gt; &lt;/span&gt;&lt;span style=&quot;&quot;&gt;link&lt;/span&gt;&lt;span style=&quot;&quot;&gt; &lt;/span&gt;&lt;span style=&quot;&quot;&gt;set&lt;/span&gt;&lt;span style=&quot;&quot;&gt; &lt;/span&gt;&lt;span style=&quot;&quot;&gt;dev&lt;/span&gt;&lt;span style=&quot;&quot;&gt; &lt;/span&gt;&lt;span style=&quot;&quot;&gt;vxlan10&lt;/span&gt;&lt;span style=&quot;&quot;&gt; &lt;/span&gt;&lt;span style=&quot;&quot;&gt;up&lt;/span&gt;&lt;/div&gt;&lt;div&gt;&lt;br&gt;&lt;/div&gt;&lt;div&gt;&lt;span style=&quot;&quot;&gt;ip&lt;/span&gt;&lt;span style=&quot;&quot;&gt; &lt;/span&gt;&lt;span style=&quot;&quot;&gt;link&lt;/span&gt;&lt;span style=&quot;&quot;&gt; &lt;/span&gt;&lt;span style=&quot;&quot;&gt;add&lt;/span&gt;&lt;span style=&quot;&quot;&gt; &lt;/span&gt;&lt;span style=&quot;&quot;&gt;br0&lt;/span&gt;&lt;span style=&quot;&quot;&gt; &lt;/span&gt;&lt;span style=&quot;&quot;&gt;type&lt;/span&gt;&lt;span style=&quot;&quot;&gt; &lt;/span&gt;&lt;span style=&quot;&quot;&gt;bridge&lt;/span&gt;&lt;/div&gt;&lt;div&gt;&lt;span style=&quot;&quot;&gt;ip&lt;/span&gt;&lt;span style=&quot;&quot;&gt; &lt;/span&gt;&lt;span style=&quot;&quot;&gt;link&lt;/span&gt;&lt;span style=&quot;&quot;&gt; &lt;/span&gt;&lt;span style=&quot;&quot;&gt;set&lt;/span&gt;&lt;span style=&quot;&quot;&gt; &lt;/span&gt;&lt;span style=&quot;&quot;&gt;dev&lt;/span&gt;&lt;span style=&quot;&quot;&gt; &lt;/span&gt;&lt;span style=&quot;&quot;&gt;br0&lt;/span&gt;&lt;span style=&quot;&quot;&gt; &lt;/span&gt;&lt;span style=&quot;&quot;&gt;up&lt;/span&gt;&lt;/div&gt;&lt;div&gt;&lt;span style=&quot;&quot;&gt;brctl&lt;/span&gt;&lt;span style=&quot;&quot;&gt; &lt;/span&gt;&lt;span style=&quot;&quot;&gt;addif&lt;/span&gt;&lt;span style=&quot;&quot;&gt; &lt;/span&gt;&lt;span style=&quot;&quot;&gt;br0&lt;/span&gt;&lt;span style=&quot;&quot;&gt; &lt;/span&gt;&lt;span style=&quot;&quot;&gt;eth1&lt;/span&gt;&lt;/div&gt;&lt;div&gt;&lt;span style=&quot;&quot;&gt;brctl&lt;/span&gt;&lt;span style=&quot;&quot;&gt; &lt;/span&gt;&lt;span style=&quot;&quot;&gt;addif&lt;/span&gt;&lt;span style=&quot;&quot;&gt; &lt;/span&gt;&lt;span style=&quot;&quot;&gt;br0&lt;/span&gt;&lt;span style=&quot;&quot;&gt; &lt;/span&gt;&lt;span style=&quot;&quot;&gt;vxlan10&lt;/span&gt;&lt;/div&gt;&lt;/div&gt;" style="rounded=0;whiteSpace=wrap;html=1;align=left;fontColor=default;labelBackgroundColor=default;strokeColor=none;" parent="vhXZTFGHfUpD-fuafXl4-55" vertex="1">
          <mxGeometry y="19" width="340" height="280" as="geometry" />
        </mxCell>
        <mxCell id="vhXZTFGHfUpD-fuafXl4-57" style="edgeStyle=orthogonalEdgeStyle;rounded=0;orthogonalLoop=1;jettySize=auto;html=1;exitX=0;exitY=0.5;exitDx=0;exitDy=0;entryX=0.25;entryY=0;entryDx=0;entryDy=0;fillColor=#d5e8d4;strokeColor=#82b366;strokeWidth=3;" parent="1" source="vhXZTFGHfUpD-fuafXl4-9" target="vhXZTFGHfUpD-fuafXl4-40" edge="1">
          <mxGeometry relative="1" as="geometry" />
        </mxCell>
        <mxCell id="vhXZTFGHfUpD-fuafXl4-58" style="edgeStyle=orthogonalEdgeStyle;rounded=0;orthogonalLoop=1;jettySize=auto;html=1;exitX=1;exitY=0.5;exitDx=0;exitDy=0;entryX=0.75;entryY=0;entryDx=0;entryDy=0;fillColor=#d5e8d4;strokeColor=#82b366;strokeWidth=3;" parent="1" source="vhXZTFGHfUpD-fuafXl4-11" target="vhXZTFGHfUpD-fuafXl4-49" edge="1">
          <mxGeometry relative="1" as="geometry" />
        </mxCell>
        <mxCell id="vhXZTFGHfUpD-fuafXl4-59" style="edgeStyle=orthogonalEdgeStyle;rounded=0;orthogonalLoop=1;jettySize=auto;html=1;exitX=1;exitY=0.5;exitDx=0;exitDy=0;entryX=0;entryY=0.5;entryDx=0;entryDy=0;strokeWidth=3;fillColor=#d5e8d4;strokeColor=#82b366;" parent="1" source="vhXZTFGHfUpD-fuafXl4-51" target="vhXZTFGHfUpD-fuafXl4-22" edge="1">
          <mxGeometry relative="1" as="geometry" />
        </mxCell>
        <mxCell id="vhXZTFGHfUpD-fuafXl4-60" style="edgeStyle=orthogonalEdgeStyle;rounded=0;orthogonalLoop=1;jettySize=auto;html=1;exitX=0;exitY=0.5;exitDx=0;exitDy=0;entryX=1;entryY=0.5;entryDx=0;entryDy=0;strokeWidth=3;fillColor=#d5e8d4;strokeColor=#82b366;" parent="1" source="vhXZTFGHfUpD-fuafXl4-41" target="vhXZTFGHfUpD-fuafXl4-64" edge="1">
          <mxGeometry relative="1" as="geometry" />
        </mxCell>
        <mxCell id="vhXZTFGHfUpD-fuafXl4-63" value="host-mbastard" style="swimlane;whiteSpace=wrap;html=1;" parent="1" vertex="1" collapsed="1">
          <mxGeometry x="70" y="80" width="290" height="30" as="geometry">
            <mxRectangle x="70" y="80" width="290" height="170" as="alternateBounds" />
          </mxGeometry>
        </mxCell>
        <mxCell id="vhXZTFGHfUpD-fuafXl4-64" value="eth0" style="rounded=0;whiteSpace=wrap;html=1;" parent="vhXZTFGHfUpD-fuafXl4-63" vertex="1">
          <mxGeometry x="20" y="40" width="250" height="60" as="geometry" />
        </mxCell>
        <mxCell id="vhXZTFGHfUpD-fuafXl4-65" value="conf" style="swimlane;whiteSpace=wrap;html=1;" parent="vhXZTFGHfUpD-fuafXl4-63" vertex="1" collapsed="1">
          <mxGeometry x="20" y="120" width="250" height="30" as="geometry">
            <mxRectangle x="20" y="120" width="250" height="80" as="alternateBounds" />
          </mxGeometry>
        </mxCell>
        <mxCell id="vhXZTFGHfUpD-fuafXl4-66" value="&lt;div style=&quot;font-family: Consolas, &amp;quot;Courier New&amp;quot;, monospace; font-size: 14px; line-height: 19px;&quot;&gt;&lt;span style=&quot;background-color: rgb(255, 255, 255);&quot;&gt;ip addr add 30.1.1.1/24 dev eth0&lt;/span&gt;&lt;/div&gt;" style="rounded=0;whiteSpace=wrap;html=1;strokeColor=none;" parent="vhXZTFGHfUpD-fuafXl4-65" vertex="1">
          <mxGeometry y="20" width="250" height="60" as="geometry" />
        </mxCell>
      </root>
    </mxGraphModel>
  </diagram>
</mxfile>
